<svg xmlns="http://www.w3.org/2000/svg" version="1.1" xmlns:xlink="http://www.w3.org/1999/xlink" viewBox="0 0 200 200" width="200" height="200"><metadata><rdf:RDF xmlns:rdf="http://www.w3.org/1999/02/22-rdf-syntax-ns#" xmlns:dc="http://purl.org/dc/elements/1.1/"><rdf:Description><dc:creator>RealFaviconGenerator</dc:creator><dc:source>https://realfavicongenerator.net</dc:source></rdf:Description></rdf:RDF></metadata><rect width="200" height="200" fill="url('#gradient')"></rect><defs><linearGradient id="gradient" gradientTransform="rotate(359 0.5 0.5)"><stop offset="0%" stop-color="#0a1227"></stop><stop offset="100%" stop-color="#2445a0"></stop></linearGradient></defs><g><g fill="#ffffff" transform="matrix(7.5851851851851855,0,0,7.5851851851851855,32.401328939098704,135.45859355926513)" stroke="#091a48" stroke-width="0"><path d="M17.15-5.37L17.15-5.37Q17.05-2.82 15.88-1.31Q14.71 0.21 12.75 0.21L12.75 0.21Q11.95 0.21 11.34-0.14Q10.72-0.49 10.38-1.12L10.38-1.12Q9.42 0.17 7.81 0.17L7.81 0.17Q6.88 0.17 6.17-0.39Q5.47-0.94 5.14-1.95Q4.81-2.97 4.94-4.26L4.94-4.26Q5.23-6.70 6.51-8.18Q7.79-9.67 9.65-9.67L9.65-9.67Q11.08-9.67 12.12-9.00L12.12-9.00L12.73-8.59L12.24-2.86Q12.07-1.50 13.17-1.50L13.17-1.50Q14.00-1.50 14.57-2.56Q15.13-3.62 15.19-5.27L15.19-5.27Q15.35-8.54 13.83-10.31Q12.31-12.09 9.38-12.09L9.38-12.09Q7.52-12.09 6.07-11.14Q4.62-10.19 3.77-8.44Q2.93-6.70 2.82-4.47L2.82-4.47Q2.67-1.05 4.19 0.76Q5.71 2.57 8.76 2.57L8.76 2.57Q9.58 2.57 10.50 2.38Q11.42 2.19 11.99 1.93L11.99 1.93L12.35 3.55Q11.76 3.95 10.75 4.18Q9.74 4.42 8.72 4.42L8.72 4.42Q6.05 4.42 4.21 3.40Q2.37 2.38 1.47 0.38Q0.58-1.62 0.67-4.47L0.67-4.47Q0.79-7.17 1.92-9.30Q3.05-11.44 5.00-12.60Q6.96-13.77 9.42-13.77Q11.88-13.77 13.67-12.75Q15.46-11.73 16.36-9.81Q17.26-7.90 17.15-5.37ZM7.38-4.26L7.38-4.26Q7.28-2.99 7.58-2.34Q7.89-1.69 8.57-1.69L8.57-1.69Q9.03-1.69 9.42-2.10Q9.80-2.51 10.06-3.27L10.06-3.27L10.45-7.72Q10.16-7.80 9.84-7.80L9.84-7.80Q8.75-7.80 8.16-6.95Q7.57-6.09 7.38-4.26Z"></path></g></g></svg>